<?xml version="1.0" encoding="UTF-8"?>
<svg xmlns="http://www.w3.org/2000/svg" xmlns:xlink="http://www.w3.org/1999/xlink" width="128pt" height="128pt" viewBox="0 0 128 128" version="1.1">
<g id="surface1">
<path style=" stroke:none;fill-rule:nonzero;fill:#5B5B5B;fill-opacity:1;" d="M 89 2 C 73.800781 2 61.5 14.300781 61 29.902344 C 60.601563 44.402344 74.5 63.5 82.800781 73.5 C 84.402344 75.398438 86.601563 76.402344 89 76.402344 C 91.398438 76.402344 93.597656 75.300781 95.199219 73.5 C 103.5 63.398438 117.5 44.402344 117 29.902344 C 116.5 14.300781 104.199219 2 89 2 Z M 52.730469 7.617188 C 52.523438 7.625 52.3125 7.648438 52.097656 7.699219 C 34.097656 11.597656 19.300781 23.300781 11.5 40 C 5 54 4.300781 69.800781 9.601563 84.300781 C 14.898438 98.800781 25.5 110.5 39.597656 117 C 47.398438 120.601563 55.699219 122.5 64.097656 122.5 C 70.800781 122.5 77.5 121.300781 84 119 C 98.601563 113.699219 110.199219 103.101563 116.699219 89 C 119.5 83 121.199219 76.699219 121.898438 70.199219 C 122.101563 68.597656 120.898438 67.101563 119.199219 66.902344 C 117.597656 66.699219 116.101563 67.898438 115.898438 69.597656 C 115.300781 75.398438 113.800781 81.101563 111.300781 86.5 C 105.402344 99.101563 95 108.601563 82 113.398438 C 69 118.101563 54.800781 117.5 42.300781 111.699219 C 40.402344 110.800781 38.601563 109.800781 36.800781 108.699219 C 38.5 108.597656 40.300781 108.097656 41.902344 107.199219 C 43.699219 106.199219 45.597656 105 47.699219 103.601563 C 49.097656 102.601563 50.300781 101.300781 51.199219 99.800781 C 52.199219 98 53.398438 96.101563 54 93.902344 C 57.898438 78.902344 44.898438 78.300781 44.5 75 C 44.101563 71.300781 48.902344 68.5 51.800781 65.597656 C 54.699219 62.699219 55.597656 58.199219 54.097656 55.597656 C 49.300781 47 37.902344 51.5 36.800781 60.699219 C 36.199219 66.199219 32.898438 71.800781 30.097656 74.699219 C 27.300781 77.5 21.800781 76 20.300781 71.902344 C 18.601563 67.300781 24.5 65.597656 23.597656 59.699219 C 23.398438 58.097656 21.699219 57.300781 19.597656 57 L 12.699219 57.199219 C 13.398438 52.199219 14.898438 47.300781 17.097656 42.699219 C 23.898438 27.597656 37.199219 17.097656 53.402344 13.597656 C 55 13.300781 56.097656 11.699219 55.699219 10 C 55.4375 8.601563 54.179688 7.582031 52.730469 7.617188 Z M 89 20 C 94.5 20 99 24.5 99 30 C 99 35.5 94.5 40 89 40 C 83.5 40 79 35.5 79 30 C 79 24.5 83.5 20 89 20 Z "/>
</g>
</svg>
