<?xml version="1.0" encoding="UTF-8"?>
<svg xmlns="http://www.w3.org/2000/svg" xmlns:xlink="http://www.w3.org/1999/xlink" width="128pt" height="128pt" viewBox="0 0 128 128" version="1.1">
<g id="surface1">
<path style=" stroke:none;fill-rule:nonzero;fill:#5B5B5B;fill-opacity:1;" d="M 24 20 C 16.800781 20 11 25.800781 11 33 C 11 34.699219 12.300781 36 14 36 C 15.699219 36 17 34.699219 17 33 C 17 29.101563 20.101563 26 24 26 L 104 26 C 107.898438 26 111 29.101563 111 33 C 111 34.699219 112.300781 36 114 36 C 115.699219 36 117 34.699219 117 33 C 117 25.800781 111.199219 20 104 20 Z M 14 43 C 12.300781 43 11 44.300781 11 46 L 11 95 C 11 102.199219 16.800781 108 24 108 L 104 108 C 110.898438 108 117 102.398438 117 96 L 117 46 C 117 44.300781 115.699219 43 114 43 C 112.300781 43 111 44.300781 111 46 L 111 96 C 111 98.800781 107.898438 102 104 102 L 24 102 C 20.101563 102 17 98.898438 17 95 L 17 46 C 17 44.300781 15.699219 43 14 43 Z M 29.136719 48.089844 C 28.375 48.074219 27.601563 48.351563 27 48.902344 C 25.800781 50 25.800781 51.898438 26.902344 53.097656 C 36.601563 63.398438 49.800781 69 64 69 C 78.199219 69 91.398438 63.398438 101.199219 53.199219 C 102.300781 52 102.300781 50.101563 101.101563 49 C 99.898438 47.898438 98 47.898438 96.902344 49.097656 C 88.199219 58 76.5 63 64 63 C 51.5 63 39.800781 58 31.199219 49 C 30.648438 48.398438 29.898438 48.101563 29.136719 48.089844 Z "/>
</g>
</svg>
