<svg width="23" height="35" viewBox="0 0 23 35" fill="none" xmlns="http://www.w3.org/2000/svg">
<path d="M21.9567 14.21H19.2033H3.59333H0.863333C0.373333 14.21 0 14.6066 0 15.0733V23.6833H1.72667V15.9366H2.73V26.25C2.73 28.1166 3.89667 29.7033 5.55333 30.3333V35H7.28V30.6366H15.54V35H17.2667V30.3333C18.9 29.7033 20.09 28.1166 20.09 26.25V15.9366H21.0933V23.6833H22.82V15.0733C22.8433 14.5833 22.4467 14.21 21.9567 14.21ZM18.3633 26.25C18.3633 27.6966 17.1733 28.8866 15.7033 28.8866H7.14C5.67 28.8866 4.48 27.6966 4.48 26.25V15.9366H18.3633V26.25Z" fill="#2E2E2E"/>
<path d="M3.5937 13.3233H11.387H11.4104H11.4337H19.227C19.717 13.3233 20.0904 12.9267 20.0904 12.46V9.61333C20.0904 7.58333 19.1104 5.69333 17.5237 4.57333L19.857 0.933333L18.4104 0L16.007 3.73333C14.5604 3.10333 12.997 2.75333 11.4104 2.75333C9.8237 2.75333 8.26037 3.08 6.8137 3.73333L4.41036 0L2.94036 0.933333L5.2737 4.57333C3.68703 5.69333 2.70703 7.56 2.70703 9.59V12.46C2.73036 12.95 3.12703 13.3233 3.5937 13.3233ZM4.45703 9.59C4.45703 7.98 5.2737 6.51 6.65036 5.74C8.09703 4.92333 9.73037 4.48 11.4104 4.48C13.0904 4.48 14.7237 4.92333 16.1937 5.74C17.5237 6.48667 18.3637 7.95667 18.3637 9.56667V11.55H4.45703V9.59Z" fill="#2E2E2E"/>
</svg>
