<svg width="33" height="33" viewBox="0 0 33 33" fill="none" xmlns="http://www.w3.org/2000/svg">
<path d="M13.7505 8.01367H1V14.3944H13.7505V8.01367Z" stroke="#2E2E2E" stroke-width="2" stroke-miterlimit="10" stroke-linecap="round" stroke-linejoin="round"/>
<path d="M31.9994 8.01367H19.249V14.3944H31.9994V8.01367Z" stroke="#2E2E2E" stroke-width="2" stroke-miterlimit="10" stroke-linecap="round" stroke-linejoin="round"/>
<path d="M13.7502 14.394H4.51758V31.9999H13.7502V14.394Z" stroke="#2E2E2E" stroke-width="2" stroke-miterlimit="10" stroke-linecap="round" stroke-linejoin="round"/>
<path d="M28.4884 14.394H19.249V31.9999H28.4884V14.394Z" stroke="#2E2E2E" stroke-width="2" stroke-miterlimit="10" stroke-linecap="round" stroke-linejoin="round"/>
<path d="M19.2501 8.01367H13.751V32.0002H19.2501V8.01367Z" stroke="#2E2E2E" stroke-width="2" stroke-miterlimit="10" stroke-linecap="round" stroke-linejoin="round"/>
<path d="M13.7502 8.01343C13.7502 8.01343 12.5371 3.66655 10.1132 1.72303C8.63143 0.534898 6.45859 0.836198 5.41501 2.44201C5.03093 3.03301 4.8105 3.79254 5.03615 4.73283C5.26662 5.69326 5.90784 6.49559 6.75926 6.95818L8.70149 8.01343H13.7502V8.01343Z" stroke="#2E2E2E" stroke-width="2" stroke-miterlimit="10"/>
<path d="M19.0977 8.01343C19.0977 8.01343 20.3108 3.66655 22.7346 1.72303C24.2164 0.534898 26.3893 0.836198 27.4328 2.44201C27.8169 3.03301 28.0373 3.79254 27.8117 4.73283C27.5812 5.69326 26.94 6.49559 26.0886 6.95818L24.1463 8.01343H19.0977V8.01343Z" stroke="#2E2E2E" stroke-width="2" stroke-miterlimit="10"/>
<path d="M18.1565 8.01343H14.6928C14.1726 8.01343 13.751 7.59177 13.751 7.07164V3.74062C13.751 3.22048 14.1726 2.79883 14.6928 2.79883H18.1565C18.6766 2.79883 19.0983 3.22048 19.0983 3.74062V7.07164C19.0983 7.59177 18.6766 8.01343 18.1565 8.01343Z" stroke="#2E2E2E" stroke-width="2" stroke-miterlimit="10"/>
</svg>
