<svg width="54" height="31" viewBox="0 0 54 31" fill="none" xmlns="http://www.w3.org/2000/svg">
<path d="M53.6351 14.3666L48.3446 9.07601C36.1824 -3.02534 17.8176 -3.02534 5.65541 9.07601L0.364865 14.3666C0.121622 14.6098 0 14.9138 0 15.2179C0 15.522 0.121622 15.826 0.364865 16.0693L5.65541 21.3598C11.7365 27.3801 19.3986 30.4206 27 30.4206C34.6014 30.4206 42.2635 27.3801 48.3446 21.3598L53.6351 16.0693C53.8784 15.826 54 15.522 54 15.2179C54 14.9138 53.8784 14.6098 53.6351 14.3666ZM46.6419 19.5963C35.4527 30.7247 18.5473 30.7247 7.35811 19.5963L2.91892 15.2179L7.35811 10.8395C18.5473 -0.288853 35.4527 -0.288853 46.6419 10.8395L51.0811 15.2179L46.6419 19.5963Z" fill="#2E2E2E"/>
<path d="M27.0001 5.0625C21.4055 5.0625 16.8447 9.62331 16.8447 15.2179C16.8447 20.8125 21.4055 25.3733 27.0001 25.3733C32.5947 25.3733 37.1555 20.8125 37.1555 15.2179C37.1555 9.62331 32.5947 5.0625 27.0001 5.0625ZM27.0001 22.9409C22.7434 22.9409 19.2772 19.4747 19.2772 15.2179C19.2772 10.9611 22.7434 7.49493 27.0001 7.49493C31.2569 7.49493 34.7231 10.9611 34.7231 15.2179C34.7231 19.4747 31.2569 22.9409 27.0001 22.9409Z" fill="#2E2E2E"/>
<path d="M28.2163 12.0555C27.7907 12.542 27.7907 13.3326 28.2772 13.7582C28.7028 14.1231 28.8853 14.6096 28.8853 15.1569C28.8853 16.1907 28.0339 17.042 27.0001 17.042C26.5136 17.042 26.0272 16.8596 25.6623 16.4947C25.1758 16.0082 24.4461 16.0082 23.9596 16.4947C23.4731 16.9812 23.4731 17.7109 23.9596 18.1974C24.7501 18.988 25.8447 19.4744 27.0001 19.4744C29.3718 19.4744 31.3177 17.5285 31.3177 15.1569C31.3177 13.9407 30.7704 12.7244 29.8582 11.9339C29.4326 11.569 28.642 11.569 28.2163 12.0555Z" fill="#2E2E2E"/>
</svg>
