<svg width="30" height="30" viewBox="0 0 30 30" fill="none" xmlns="http://www.w3.org/2000/svg">
<path fill-rule="evenodd" clip-rule="evenodd" d="M15 5.96006e-07C17.9667 8.55365e-07 20.8668 0.879733 23.3335 2.52795C25.8003 4.17618 27.7229 6.51885 28.8582 9.25974C29.9935 12.0006 30.2906 15.0166 29.7118 17.9264C29.133 20.8361 27.7044 23.5088 25.6066 25.6066C23.5088 27.7044 20.8361 29.133 17.9263 29.7118C15.0166 30.2906 12.0006 29.9935 9.25974 28.8582C6.51885 27.7229 4.17617 25.8003 2.52795 23.3335C0.879733 20.8668 -8.55365e-07 17.9667 -5.96007e-07 15C-2.48217e-07 11.0217 1.58035 7.20644 4.39339 4.39339C7.20644 1.58035 11.0218 2.48217e-07 15 5.96006e-07ZM15 27C17.3734 27 19.6934 26.2962 21.6668 24.9776C23.6402 23.6591 25.1783 21.7849 26.0865 19.5922C26.9948 17.3995 27.2324 14.9867 26.7694 12.6589C26.3064 10.3311 25.1635 8.19295 23.4853 6.51472C21.807 4.83649 19.6689 3.6936 17.3411 3.23057C15.0133 2.76755 12.6005 3.0052 10.4078 3.91345C8.21508 4.8217 6.34094 6.35976 5.02236 8.33315C3.70378 10.3065 3 12.6266 3 15C3 18.1826 4.26428 21.2348 6.51472 23.4853C8.76515 25.7357 11.8174 27 15 27ZM14.85 7.2C15.117 7.2 15.378 7.27918 15.6 7.42752C15.822 7.57586 15.9951 7.78669 16.0972 8.03338C16.1994 8.28005 16.2261 8.55149 16.1741 8.81337C16.122 9.07524 15.9934 9.31579 15.8046 9.50459C15.6158 9.69339 15.3752 9.82197 15.1134 9.87406C14.8515 9.92615 14.5801 9.89942 14.3334 9.79724C14.0867 9.69506 13.8759 9.52202 13.7275 9.30001C13.5792 9.07801 13.5 8.817 13.5 8.55C13.5 8.19195 13.6422 7.84858 13.8954 7.5954C14.1486 7.34223 14.492 7.2 14.85 7.2ZM15 11.7C15.2387 11.7 15.4676 11.7948 15.6364 11.9636C15.8052 12.1324 15.9 12.3613 15.9 12.6L15.9 21.6C15.9 21.8387 15.8052 22.0676 15.6364 22.2364C15.4676 22.4052 15.2387 22.5 15 22.5C14.7613 22.5 14.5324 22.4052 14.3636 22.2364C14.1948 22.0676 14.1 21.8387 14.1 21.6L14.1 12.6C14.1 12.3613 14.1948 12.1324 14.3636 11.9636C14.5324 11.7948 14.7613 11.7 15 11.7Z" fill="#2E2E2E"/>
</svg>
