<svg width="28" height="35" viewBox="0 0 28 35" fill="none" xmlns="http://www.w3.org/2000/svg">
<path d="M20.6949 9.46817L20.7329 9.47229L20.771 9.4735C21.8576 9.50802 22.9219 9.79964 23.8794 10.326C24.5531 10.6964 25.1611 11.1759 25.6802 11.7444C24.4301 12.7774 22.3564 15.0314 22.3864 18.617C22.3882 20.3167 22.882 21.9796 23.8081 23.3989C24.5657 24.5599 25.5856 25.5165 26.7791 26.1916C26.2844 27.572 25.6118 28.8808 24.7783 30.0834L24.7714 30.0934L24.7647 30.1036C24.0512 31.1885 23.3854 32.1563 22.6397 32.8645C21.9139 33.5539 21.1829 33.9296 20.3351 33.9441L20.3287 33.9443C19.4313 33.9655 18.8501 33.7132 18.047 33.3645L18.039 33.361C17.2051 32.999 16.2012 32.5721 14.677 32.5721C13.156 32.5721 12.1436 32.9651 11.2876 33.3296C11.234 33.3524 11.1815 33.3748 11.1298 33.3969C10.3731 33.7205 9.80716 33.9625 8.98132 33.9988C8.25175 34.0239 7.51514 33.657 6.71139 32.8898C5.90719 32.1222 5.16845 31.0822 4.4294 30.0092C3.04486 27.9515 1.79744 25.0203 1.26809 21.9671C0.73701 18.904 0.94813 15.8417 2.32095 13.4254L2.32509 13.4181L2.32911 13.4107C2.95111 12.2719 3.85233 11.3182 4.94325 10.6414C6.03218 9.96579 7.27355 9.58875 8.54656 9.54564C9.44364 9.52917 10.3553 9.83916 11.3231 10.2283C11.4386 10.2747 11.5573 10.3233 11.6775 10.3725C12.0313 10.5172 12.3984 10.6673 12.7366 10.7854C13.1894 10.9436 13.7069 11.0888 14.2239 11.0888C14.7557 11.0888 15.317 10.91 15.7943 10.7345C16.0543 10.6389 16.3723 10.5108 16.6895 10.3829C16.9301 10.2859 17.1703 10.1891 17.3842 10.1069C18.5063 9.67564 19.6213 9.35168 20.6949 9.46817ZM16.5266 3.31152L16.5282 3.30954C17.3489 2.33019 18.6437 1.53402 19.8293 1.18567C19.7124 2.56975 19.1822 3.89328 18.2985 4.97213C17.4202 6.02724 16.1661 6.81662 14.9312 7.02675C15.046 5.6587 15.7317 4.25519 16.5266 3.31152Z" stroke="#2E2E2E" stroke-width="2"/>
</svg>
