<svg width="36" height="31" viewBox="0 0 36 31" fill="none" xmlns="http://www.w3.org/2000/svg">
<path d="M11.5714 14.2083H14.1429V11.625H11.5714V14.2083ZM16.7143 14.2083H19.2857V11.625H16.7143V14.2083ZM21.8571 14.2083H24.4286V11.625H21.8571V14.2083ZM36 3.875V21.9583C36 24.1542 34.3286 25.8333 32.1429 25.8333H30.8571V29.7083C30.8571 30.225 30.6 30.7417 30.0857 30.8708C29.9571 31 29.7 31 29.5714 31C29.1857 31 28.9286 30.8708 28.6714 30.6125L23.9143 25.8333H3.85714C1.67143 25.8333 0 24.1542 0 21.9583V3.875C0 1.67917 1.67143 0 3.85714 0H32.1429C34.3286 0 36 1.67917 36 3.875ZM33.4286 3.875C33.4286 3.1 32.9143 2.58333 32.1429 2.58333H3.85714C3.08571 2.58333 2.57143 3.1 2.57143 3.875V21.9583C2.57143 22.7333 3.08571 23.25 3.85714 23.25H24.4286C24.8143 23.25 25.0714 23.3792 25.3286 23.6375L28.2857 26.6083V24.5417C28.2857 23.7667 28.8 23.25 29.5714 23.25H32.1429C32.9143 23.25 33.4286 22.7333 33.4286 21.9583V3.875Z" fill="#2E2E2E"/>
</svg>
