<svg width="24" height="24" viewBox="0 0 24 24" fill="none" xmlns="http://www.w3.org/2000/svg">
<circle cx="12" cy="12" r="11.25" stroke="#1D4F6E" stroke-width="1.5"/>
<path d="M4.43835 11.8901L4.71521 9.45117H7.40466V10.2455H5.49634L5.37769 11.2771C5.604 11.1562 5.8446 11.0958 6.09949 11.0958C6.55652 11.0958 6.91467 11.2375 7.17395 11.521C7.43323 11.8044 7.56287 12.201 7.56287 12.7108C7.56287 13.0206 7.49695 13.2986 7.36511 13.5447C7.23547 13.7886 7.04871 13.9786 6.80481 14.1149C6.56091 14.2489 6.27307 14.3159 5.94128 14.3159C5.65125 14.3159 5.38208 14.2577 5.13379 14.1412C4.8855 14.0226 4.68884 13.8567 4.54382 13.6436C4.401 13.4304 4.3252 13.1876 4.31641 12.9152H5.25903C5.27881 13.1151 5.34802 13.2711 5.46667 13.3832C5.58752 13.493 5.74463 13.548 5.93799 13.548C6.15332 13.548 6.31921 13.4711 6.43567 13.3173C6.55212 13.1613 6.61035 12.9415 6.61035 12.6581C6.61035 12.3856 6.54333 12.1769 6.4093 12.0319C6.27527 11.8868 6.08521 11.8143 5.83911 11.8143C5.61279 11.8143 5.42932 11.8737 5.2887 11.9923L5.19641 12.078L4.43835 11.8901Z" fill="#1D4F6E"/>
<path d="M11.0651 12.2659C11.0651 12.9294 10.9278 13.437 10.6531 13.7886C10.3784 14.1401 9.97634 14.3159 9.4468 14.3159C8.92385 14.3159 8.52395 14.1434 8.24709 13.7985C7.97024 13.4535 7.82852 12.9591 7.82192 12.3153V11.432C7.82192 10.7618 7.96035 10.2532 8.23721 9.90601C8.51626 9.55884 8.91726 9.38525 9.44021 9.38525C9.96316 9.38525 10.3631 9.55774 10.6399 9.90271C10.9168 10.2455 11.0585 10.7388 11.0651 11.3826V12.2659ZM10.1126 11.2969C10.1126 10.8992 10.0576 10.6102 9.94778 10.4301C9.84011 10.2477 9.67092 10.1565 9.44021 10.1565C9.21609 10.1565 9.0502 10.2433 8.94253 10.4169C8.83706 10.5883 8.78103 10.8574 8.77444 11.2244V12.3911C8.77444 12.7822 8.82717 13.0734 8.93264 13.2645C9.04031 13.4535 9.21169 13.548 9.4468 13.548C9.67971 13.548 9.8478 13.4568 9.95107 13.2744C10.0543 13.092 10.1082 12.813 10.1126 12.4373V11.2969Z" fill="#1D4F6E"/>
<path d="M11.4593 13.782C11.4593 13.6304 11.5098 13.5073 11.6109 13.4128C11.7142 13.3184 11.8427 13.2711 11.9965 13.2711C12.1525 13.2711 12.2811 13.3184 12.3821 13.4128C12.4854 13.5073 12.537 13.6304 12.537 13.782C12.537 13.9314 12.4865 14.0533 12.3854 14.1478C12.2844 14.2401 12.1547 14.2863 11.9965 14.2863C11.8405 14.2863 11.712 14.2401 11.6109 14.1478C11.5098 14.0533 11.4593 13.9314 11.4593 13.782ZM11.4593 11.0826C11.4593 10.931 11.5098 10.808 11.6109 10.7135C11.7142 10.619 11.8427 10.5718 11.9965 10.5718C12.1525 10.5718 12.2811 10.619 12.3821 10.7135C12.4854 10.808 12.537 10.931 12.537 11.0826C12.537 11.2321 12.4865 11.354 12.3854 11.4485C12.2844 11.5408 12.1547 11.5869 11.9965 11.5869C11.8405 11.5869 11.712 11.5408 11.6109 11.4485C11.5098 11.354 11.4593 11.2321 11.4593 11.0826Z" fill="#1D4F6E"/>
<path d="M13.0828 11.8901L13.3597 9.45117H16.0491V10.2455H14.1408L14.0222 11.2771C14.2485 11.1562 14.4891 11.0958 14.744 11.0958C15.201 11.0958 15.5592 11.2375 15.8184 11.521C16.0777 11.8044 16.2073 12.201 16.2073 12.7108C16.2073 13.0206 16.1414 13.2986 16.0096 13.5447C15.88 13.7886 15.6932 13.9786 15.4493 14.1149C15.2054 14.2489 14.9176 14.3159 14.5858 14.3159C14.2957 14.3159 14.0266 14.2577 13.7783 14.1412C13.53 14.0226 13.3333 13.8567 13.1883 13.6436C13.0455 13.4304 12.9697 13.1876 12.9609 12.9152H13.9035C13.9233 13.1151 13.9925 13.2711 14.1112 13.3832C14.232 13.493 14.3891 13.548 14.5825 13.548C14.7978 13.548 14.9637 13.4711 15.0802 13.3173C15.1966 13.1613 15.2548 12.9415 15.2548 12.6581C15.2548 12.3856 15.1878 12.1769 15.0538 12.0319C14.9198 11.8868 14.7297 11.8143 14.4836 11.8143C14.2573 11.8143 14.0738 11.8737 13.9332 11.9923L13.8409 12.078L13.0828 11.8901Z" fill="#1D4F6E"/>
<path d="M19.7096 12.2659C19.7096 12.9294 19.5722 13.437 19.2976 13.7886C19.0229 14.1401 18.6208 14.3159 18.0913 14.3159C17.5683 14.3159 17.1684 14.1434 16.8916 13.7985C16.6147 13.4535 16.473 12.9591 16.4664 12.3153V11.432C16.4664 10.7618 16.6048 10.2532 16.8817 9.90601C17.1607 9.55884 17.5617 9.38525 18.0847 9.38525C18.6076 9.38525 19.0075 9.55774 19.2844 9.90271C19.5613 10.2455 19.703 10.7388 19.7096 11.3826V12.2659ZM18.7571 11.2969C18.7571 10.8992 18.7021 10.6102 18.5923 10.4301C18.4846 10.2477 18.3154 10.1565 18.0847 10.1565C17.8606 10.1565 17.6947 10.2433 17.587 10.4169C17.4815 10.5883 17.4255 10.8574 17.4189 11.2244V12.3911C17.4189 12.7822 17.4717 13.0734 17.5771 13.2645C17.6848 13.4535 17.8562 13.548 18.0913 13.548C18.3242 13.548 18.4923 13.4568 18.5956 13.2744C18.6988 13.092 18.7527 12.813 18.7571 12.4373V11.2969Z" fill="#1D4F6E"/>
</svg>
