<svg width="1920" height="1090" viewBox="0 0 1920 1090" fill="none" xmlns="http://www.w3.org/2000/svg">
<path d="M0 0H1920V1090H0V0Z" fill="#2E2E2E"/>
<path fill-rule="evenodd" clip-rule="evenodd" d="M1548.66 653.959C1579.02 653.64 1598.11 642.636 1625.34 638.027C1665.83 631.18 1710.59 641.21 1744.88 647.132L1806.91 650.545C1839.74 655.708 1869.94 632.357 1896 647.132C1893.21 668.87 1872.7 685.762 1853.15 690.372L1826.08 694.925C1810.41 704.229 1807.01 719.421 1780.97 719.959C1747.81 672.518 1733.98 698.836 1686.24 707.442C1663.17 711.601 1646.11 691.818 1626.47 697.201L1571.21 724.511C1552.07 733.726 1526.63 736.64 1521.59 759.787C1506.36 829.817 1613.49 894.473 1568.96 954.379C1552.56 976.438 1503.68 983.917 1471.97 989.655C1447.43 994.096 1417.35 984.639 1397.54 993.068C1369.43 1005.03 1367.01 1055.87 1344.54 1075C1339.43 1074.02 1341.18 1075.13 1338.9 1071.59C1324.46 1043.4 1335.45 986.666 1338.9 956.655H1340.03C1340.78 966.515 1341.53 976.378 1342.28 986.241L1344.54 985.102C1346.01 970.243 1347.13 964.904 1340.03 955.516L1341.15 950.965C1360.02 944.435 1380.33 956.929 1403.18 952.102C1429.2 946.609 1445.09 925.964 1469.71 919.103H1510.31L1505.8 913.413C1479.58 900.701 1474.56 864.931 1458.44 841.722C1444.55 821.746 1420.55 815.492 1409.95 790.515C1378 715.282 1419.72 642.258 1420.1 553.824L1361.46 567.478C1344.99 575.042 1304.22 611.593 1287.03 608.444C1307.94 602.217 1336.96 585.789 1349.05 569.754L1344.54 568.617C1325.27 577.518 1308.52 589.845 1290.41 598.203C1311.25 572.628 1353.27 569.244 1379.5 549.271C1377.25 553.444 1374.99 557.616 1372.74 561.789C1417.72 555.648 1429.52 538.362 1451.68 510.582L1473.1 493.513C1433.86 490.163 1417.45 511.586 1394.16 529.926L1403.18 515.133L1353.56 543.582C1342.8 550.098 1327.62 548.849 1315.22 554.957C1290.07 567.357 1275.1 596.717 1255.45 615.268C1255.51 620.431 1255.67 621.807 1257.7 624.371L1276.88 609.578C1276.35 614.446 1276.35 612.113 1281.39 611.853V612.992H1279.14L1263.35 624.367C1262.22 641.816 1261.09 659.265 1259.96 676.715L1253.2 675.576C1249.66 668.231 1247.54 662.158 1247.56 650.542L1211.47 683.542L1204.7 682.404C1207.07 668.776 1216.08 663.194 1222.75 653.956C1208.01 658.965 1202.56 671.055 1185.53 674.438C1184.78 663.981 1191.32 662.032 1196.81 655.093C1189.08 657.364 1182.3 662.583 1175.38 661.921L1174.26 658.507L1182.15 651.679L1177.64 658.507C1188.06 654.154 1195.98 648.745 1209.22 647.132C1202.56 655.789 1192.34 660.243 1187.79 671.028L1223.88 648.269L1213.73 623.234C1201.32 629.682 1188.92 636.131 1176.51 642.579C1187.15 640.523 1192.68 637.029 1204.7 638.027V639.166H1202.45L1196.81 642.579L1199.07 639.166C1190.33 641.789 1177.73 647.687 1172 642.579L1176.51 636.89C1191.02 630.749 1205.88 621.963 1221.62 615.269C1215.35 630.211 1223.5 637.837 1230.64 648.269L1206.96 680.132H1210.34L1257.71 636.89C1255.45 629.683 1253.2 622.476 1250.94 615.269C1259.21 606.166 1267.48 597.062 1275.75 587.958L1259.96 597.061L1316.35 549.268L1349.05 541.302L1435.89 490.096L1493.41 488.957C1497.26 450.476 1490.8 420.626 1523.85 410.436C1531.27 408.15 1541.73 405.395 1550.92 408.159C1582.35 417.618 1580.63 472.545 1574.6 509.431C1590.12 515.731 1615.6 526.823 1637.76 520.806C1643.71 478.167 1614.39 477.857 1602.79 452.53C1603.49 443.332 1606.18 434.398 1610.69 426.356C1622.88 422.975 1637.91 425.523 1647.9 430.909L1658.05 446.858C1659.56 460.512 1661.06 474.167 1662.56 487.824C1673.92 521.545 1709.79 525.01 1696.4 576.583C1670.42 585.978 1582.94 564.044 1572.34 573.169C1553.34 587.85 1548.37 619.862 1548.66 653.959ZM1527.24 413.854C1513.27 423.888 1484.92 442.916 1502.43 471.888H1508.06C1509.57 465.593 1511.94 460.806 1515.96 457.095C1531.49 457.924 1560.92 462.324 1567.83 452.542C1585.02 428.222 1548.39 412.891 1527.24 413.854ZM1614.07 427.509L1610.69 435.475L1618.58 427.509H1614.07ZM1625.35 427.509C1618.86 436.152 1611.43 442.206 1606.18 452.543L1609.57 455.957L1611.82 454.819L1633.24 429.784L1632.12 427.508L1625.35 427.509ZM1637.75 432.059L1615.2 455.957L1618.58 459.371L1644.52 433.197L1637.75 432.059ZM1643.39 437.749L1629.86 455.956L1630.99 461.646H1632.12L1646.77 450.271C1646.58 475.517 1656.2 491.334 1660.31 511.719H1659.18V509.443C1652.78 500.726 1650.81 493.594 1637.75 491.236C1650.27 522.455 1636.26 563.553 1672.71 572.031C1679.92 573.708 1686.94 575.846 1693.01 573.168C1679.9 555.693 1667.47 544.614 1662.56 517.409H1663.69C1668.59 536.736 1680.82 557.254 1695.26 567.478V565.202C1706.5 537.494 1664.36 504.903 1656.92 486.681C1650.97 472.103 1654.47 450.372 1646.77 438.887L1643.39 437.749ZM1826.08 447.99C1912.14 446.276 1913.89 561.631 1837.36 576.577C1788.16 586.185 1753.64 531.043 1771.95 486.681C1782.16 461.964 1803.99 460.699 1826.08 447.99ZM1822.7 453.68L1813.68 455.956L1812.55 459.37C1813.3 462.783 1814.06 466.197 1814.81 469.612C1823.58 476.971 1846.01 489.205 1854.28 471.887L1856.53 462.783C1847.5 456.143 1839.55 453.373 1822.7 453.68ZM1567.83 458.233C1558.39 468.931 1534.07 461.988 1519.35 460.509L1513.71 466.198L1512.58 474.164C1521.58 479.185 1533.74 492.85 1550.92 487.819C1561.66 484.676 1561.53 479.296 1575.73 480.992C1574.85 472.219 1573.06 462.81 1567.83 458.233ZM1802.4 459.371C1791.26 473.975 1776.87 481.062 1774.21 504.889C1792.81 497.26 1798.58 485.965 1810.3 471.888C1809.74 466.492 1809.17 463.107 1805.78 460.513L1802.4 459.371ZM1862.17 462.784V471.888C1867.81 477.577 1873.45 483.267 1879.09 488.957H1882.47C1880.28 475.724 1871.59 468.664 1862.17 462.784H1862.17ZM1619.71 463.923C1623.6 472.724 1632.2 475.236 1636.62 485.543H1645.65C1643.58 479.656 1641.62 471.641 1636.62 468.474L1619.71 463.923ZM1812.56 475.298L1799.02 492.366C1800.33 501.513 1804.71 509.941 1811.43 516.264L1832.86 510.574C1836.72 502.954 1837.61 497.126 1835.11 487.815C1827.96 482.461 1822.87 478.058 1812.55 475.302L1812.56 475.298ZM1501.3 476.435C1501.68 480.608 1502.05 484.78 1502.43 488.953C1504.68 490.092 1506.94 491.229 1509.2 492.366H1510.32C1509.98 483.906 1508.42 478.475 1501.3 476.44L1501.3 476.435ZM1856.54 477.573L1844.13 486.677C1843.38 492.745 1842.63 498.814 1841.88 504.884C1844.82 514.567 1850.36 518.986 1858.79 523.091L1873.45 519.677C1876.72 512.747 1878.11 505.804 1877.96 494.642C1870.54 488.415 1867.84 480.21 1856.53 477.577L1856.54 477.573ZM1513.71 479.849C1507.97 506.718 1535.18 542.266 1561.08 529.918L1575.73 487.815L1568.97 482.125L1545.28 492.366C1531.6 494.278 1525.33 482.36 1513.7 479.854L1513.71 479.849ZM1884.73 494.648C1882.07 502.45 1881.46 514.516 1885.86 520.822C1887.43 523.009 1885.97 521.503 1888.12 523.098V519.684C1890.74 511.322 1888.69 499.907 1884.73 494.647L1884.73 494.648ZM1487.77 495.782C1463.31 514.967 1424.68 526.625 1424.61 569.748H1425.74L1435.89 560.644C1448.68 532.262 1471.45 515.999 1492.28 495.782H1487.77ZM1501.3 495.782C1501.9 510.482 1508.42 515.44 1519.34 519.679L1501.3 495.782ZM1492.28 501.472C1481.97 513.233 1469 516.526 1464.08 534.472C1484.78 524.6 1513.37 534.939 1536.26 534.472V533.334L1503.56 518.536C1498.03 513.609 1499.31 505.491 1492.28 501.475V501.472ZM1792.25 501.472C1786.83 505.104 1778.82 505.98 1775.34 511.713C1771.26 524.954 1777.94 539.181 1785.49 544.713C1795.73 542.19 1801.82 537.597 1806.91 529.914C1806.81 516.647 1801.45 505.651 1792.25 501.475V501.472ZM1575.73 513.989C1578.35 531.615 1577.36 547.957 1575.73 565.196L1646.77 575.438L1614.07 556.092C1598.63 543.783 1597.44 520.264 1575.73 513.992V513.989ZM1661.44 513.989C1661.81 515.126 1662.19 516.264 1662.56 517.402H1661.44V513.989ZM1830.6 515.126L1814.81 519.679C1811.92 525.719 1810.3 530.501 1810.3 540.161C1818.11 546.102 1823.97 551.545 1832.85 557.231C1839.8 556.016 1846.8 552.354 1849.77 546.989C1853.62 540.002 1852.85 531.907 1850.89 524.23L1841.87 517.402L1830.6 515.126ZM1570.09 519.679C1553.32 561.658 1508.68 526.611 1477.61 532.196C1449.6 537.23 1425.2 571.084 1422.35 602.748C1436.19 592.213 1442.72 575.234 1462.95 570.885C1500.51 562.813 1520.68 606.374 1537.38 603.886C1554.21 601.378 1589.48 540.439 1571.21 519.679H1570.09ZM1598.28 523.092C1608.95 545.874 1623.07 558.941 1646.77 568.61C1645.04 560.769 1640.47 534.357 1634.36 529.919C1625.87 524.931 1610.54 523.564 1598.28 523.096L1598.28 523.092ZM1872.32 523.092L1859.91 529.919C1858.79 537.125 1857.66 544.332 1856.53 551.541C1858.03 553.057 1859.54 554.574 1861.04 556.092H1865.55C1874.84 550.828 1893.2 534.213 1876.83 524.23L1872.32 523.092ZM1802.4 544.713L1788.87 551.541C1793.68 558.521 1808.39 571.276 1819.32 567.472L1823.83 565.196L1824.95 559.506C1817.78 553.234 1814.46 546.493 1802.4 544.716L1802.4 544.713ZM1380.63 545.855C1380.38 547.523 1381.1 546.996 1379.5 549.268L1380.63 545.855ZM1845.26 557.23C1838.09 561.994 1831.71 562.098 1827.21 569.747C1838.94 569.975 1853.59 567.588 1859.92 561.781L1857.66 559.505L1845.26 557.23ZM1462.96 575.441L1438.14 587.958C1425.41 602.379 1390.14 696.614 1402.06 727.925C1408.35 677.841 1424.68 616.889 1461.83 597.061C1486.47 601.457 1525.58 635.783 1547.53 607.303V606.165C1508.67 608.686 1503.09 576.69 1462.96 575.441ZM1288.16 598.2C1288.23 600.252 1289.44 599.599 1285.9 601.614C1286.65 600.476 1287.4 599.338 1288.16 598.2ZM1246.43 602.751H1249.81V603.89C1242.47 606.386 1232.96 613.303 1226.13 611.854L1246.43 602.751ZM1462.96 602.751C1438.26 629.788 1418.91 647.976 1415.59 698.338L1448.29 673.303C1480.93 659.021 1541.78 663.612 1544.15 619.82C1509.04 634.237 1491.55 608.848 1462.96 602.751ZM1281.39 603.89H1283.65L1278.01 608.441C1279.14 606.925 1280.26 605.408 1281.39 603.89ZM1283.65 609.579H1287.03V610.717H1281.39L1283.65 609.579ZM1193.43 642.579H1196.81L1195.68 644.855L1182.15 651.683L1185.53 647.132L1193.43 642.579ZM1540.77 643.717C1534.76 648.65 1528.75 653.581 1522.73 658.51L1543.03 656.235V650.545C1542.27 648.27 1541.52 645.993 1540.77 643.717H1540.77ZM1610.69 644.855L1554.3 678.998C1573.97 671.875 1632.65 658.797 1644.52 645.999L1610.69 644.855ZM1669.33 645.993L1541.9 686.959C1505.55 694.91 1472.11 691.053 1448.3 709.718C1432.15 722.377 1404.89 779.653 1447.17 784.822C1472.83 750.255 1507.26 711.683 1549.79 694.926L1610.69 682.409L1699.78 658.511L1750.53 652.821C1723.72 648.159 1696.54 645.874 1669.33 645.993H1669.33ZM1254.33 648.269C1250.36 655.421 1250.26 665.728 1256.58 671.028C1255.83 663.443 1255.08 655.856 1254.32 648.269H1254.33ZM1870.07 649.407L1845.26 658.51L1817.06 680.132C1806.16 684.76 1786.08 684.47 1779.85 693.787C1779.47 697.959 1779.1 702.131 1778.72 706.304C1807.96 689.598 1850.79 674.764 1873.45 650.545V649.407H1870.07ZM1889.24 650.545C1871.67 665.058 1843.23 668.657 1829.47 686.959C1847.8 681.956 1895.5 673.876 1889.24 650.545H1889.24ZM1811.43 653.959C1800.38 668.758 1785.94 678.503 1771.96 690.372V699.476L1774.22 698.338C1785.15 673.166 1823.56 675.186 1839.62 655.096L1811.43 653.959ZM1774.22 655.096L1724.59 659.649L1618.58 681.269L1623.1 686.959C1670.5 707.353 1684.37 692.359 1731.36 683.545C1741.46 681.651 1749.71 685.768 1756.17 686.959C1775.34 690.493 1786.98 674.59 1794.51 665.338L1784.36 656.235L1774.22 655.096ZM1794.51 655.096L1797.9 659.649L1802.41 655.096H1794.51H1794.51ZM1566.71 657.372L1527.24 663.062C1482.22 672.503 1438.13 676.435 1416.72 709.718C1403.82 729.762 1401.3 760.799 1421.23 775.719C1409.92 655.516 1534.94 709.33 1574.6 657.372H1566.71H1566.71ZM1589.27 688.097L1553.18 698.338C1513.87 714.252 1473.77 750.64 1452.81 785.96C1489.36 785.648 1496.38 761.553 1517.09 746.131L1570.1 714.27L1626.48 692.649H1624.23C1615.34 688.334 1601.84 687.968 1589.26 688.097H1589.27ZM1814.81 696.062L1784.36 709.718V714.27H1788.87C1801.42 710.223 1813.42 705.69 1820.45 696.062H1814.81ZM1515.96 756.373C1483.76 800.975 1458.36 800.719 1411.08 775.719C1419.72 797.376 1433.47 805.966 1446.04 822.374L1449.42 821.236C1460.03 811.929 1519.7 764.301 1515.96 756.373ZM1512.58 770.029L1455.06 828.064L1460.7 833.753L1491.15 890.65L1494.53 888.374C1501.39 871.181 1541.32 791.383 1512.58 770.029ZM1524.98 815.546C1516.26 877.935 1562.62 893.657 1566.71 947.548L1568.96 946.409C1579.22 911.762 1543.72 833.012 1524.98 815.546ZM1515.96 849.685C1511.93 868.186 1499.73 876.19 1499.04 899.754C1517.87 913.702 1536.3 926.065 1558.81 937.303C1556.88 928.221 1520.03 853.202 1515.96 849.685ZM1479.87 922.514C1463.38 934.71 1437.43 944.602 1416.72 950.963C1406.38 954.137 1384.12 953.153 1378.38 961.204C1376.87 964.239 1375.37 967.273 1373.86 970.307C1425.14 968.077 1491.56 956.735 1514.83 924.79L1479.87 922.514ZM1523.85 927.065C1492.78 959.203 1429 967.884 1374.99 975.997V983.963C1376.89 988.144 1377.81 990.773 1381.76 993.066C1391.97 996.269 1405.02 987.055 1414.46 985.1L1475.36 983.963C1503.8 978.873 1542.89 972.757 1557.69 953.238C1554.95 936.587 1540.57 929.33 1523.85 927.065ZM1345.67 950.962C1347.55 957.788 1349.43 964.616 1351.31 971.445C1348.97 992.338 1337.23 1021.43 1347.93 1046.55C1351.53 999.972 1364.37 988.521 1376.12 956.651L1345.67 950.962ZM1365.97 985.099C1355.74 1012.21 1348.92 1040.5 1345.67 1069.31H1346.8L1350.18 1067.03C1358.36 1045.16 1382.67 1019.52 1378.38 994.204C1374.89 989.476 1371.82 987.589 1365.97 985.099H1365.97ZM1337.78 1016.96C1337.4 1031.87 1336.04 1051.92 1341.16 1062.48C1343.42 1048.73 1346.01 1026.25 1337.78 1016.96H1337.78Z" fill="#464646"/>
<path fill-rule="evenodd" clip-rule="evenodd" d="M343.355 143.481L349.467 145.227C354.232 162.782 350.369 172.762 341.608 182.774C353.462 180.166 361.582 168.714 378.287 172.297C402.679 177.529 413.787 203.511 427.182 220.322C441.575 238.372 459.779 249.275 472.594 270.094C478.842 280.251 529.53 322.177 499.663 336.457C475.913 350.867 420.103 314.582 399.239 310.261C397.887 333.941 391.83 362.896 396.622 388.848C402.15 409.802 407.681 430.759 413.215 451.718C424.973 498.288 431.116 542.093 443.775 588.809C447.267 598.995 450.759 609.183 454.251 619.374C456.703 633.351 447.493 641.577 445.517 653.429C447.267 670.6 449.015 687.773 450.759 704.948C447.83 722.026 439.92 745.303 443.775 765.198C447.605 784.933 460.767 807.933 474.336 818.463C486.596 827.977 516.256 835.593 502.28 855.135C458.869 866.859 455.637 841.776 431.549 829.814C422.322 825.23 401.907 826.962 396.622 818.463C389.396 805.994 411.56 768.343 406.222 742.496C401.569 727.07 396.914 711.643 392.255 696.216C388.815 676.632 403.086 666.609 398.364 647.317C394.057 629.719 376.095 618.123 366.928 604.531C354.121 582.703 341.315 560.873 328.509 539.041L319.781 577.455C316.857 592.861 322.271 602.825 317.161 615.875C312.629 627.453 295.747 657.85 299.697 674.379C303.771 681.653 307.846 688.929 311.922 696.209C314.683 707.332 309.277 714.97 314.542 723.278C326.334 741.888 374.877 759.439 353.836 794.88C304.621 808.986 290.268 769.916 275.247 739.869L261.276 717.165C257.361 702.965 263.789 689.522 260.403 676.999C255.021 657.114 237.992 637.842 242.938 609.763C245.99 592.439 258.066 582.719 260.403 566.103C263.037 547.367 245.519 531.542 237.701 521.571C221.827 501.328 205.833 479.423 200.153 449.097C195.173 422.511 211.143 400.657 218.491 381.862C222.565 366.146 226.64 350.429 230.716 334.71C238.467 295.534 217.744 264.016 194.914 251.759L176.576 243.028C164.845 234.218 158.58 219.888 145.14 212.463C135.484 224.325 114.627 253.217 111.088 268.347C108.257 280.437 116.373 288.513 112.835 299.778L88.3777 334.711H84.8858L80.5196 331.218C81.1313 318.689 88.4088 312.601 90.9987 301.529C66.1361 314.633 62.99 355.213 31.6194 358.286C33.2223 349.368 33.1313 347.349 29 341.696C38.5979 317.365 58.4401 304.347 70.9147 284.065C78.1818 272.25 79.0345 256.28 84.0132 242.152C91.5333 220.803 113.913 172.327 132.912 164.435C147.965 158.183 181.31 177.959 197.53 181.025C220.636 185.394 239.478 174.914 261.275 179.279V178.405C250.476 152.036 254.955 113.252 276.12 101.565C309.632 83.0619 344.275 105.767 343.355 143.481ZM297.951 98.9489C289.137 102.811 279.669 103.993 272.628 109.426C254.644 123.302 255.796 160.252 277.867 167.93C315.727 181.1 361.88 96.8967 297.951 98.9489ZM334.627 120.778C334.006 141.615 318.607 148.757 327.641 160.945L331.134 162.692C341.196 156.682 341.249 130.936 334.627 120.778ZM344.232 146.974L336.373 164.438C332.869 168.347 330.122 164.665 328.514 171.423C332.769 190.153 313.539 203.875 322.402 225.562L324.148 223.815C334.881 218.903 339.917 207.396 338.993 190.633L338.119 180.156C340.98 173.561 356.907 162.499 344.232 146.974ZM315.415 159.199C298.451 174.69 280.772 172.433 262.149 161.818V163.569C259.346 170.264 264.596 177.753 267.388 181.906C276.368 182.913 279.909 185.188 284.853 189.765C286.147 209.727 286.984 224.499 295.331 238.664L297.951 239.537C323.289 235.89 315.801 207.24 322.402 188.017C313.442 190.994 304.627 194.829 294.459 192.383V188.017C295.622 186.271 296.786 184.525 297.951 182.778L325.894 177.54V171.427C323.663 166.264 321.663 160.595 315.415 159.199ZM139.025 166.185C130.178 171.685 121.602 176.481 117.195 186.268C151.207 165.558 155.386 207.429 177.447 213.336C205.347 220.808 238.913 194.787 260.403 189.76C246.227 177.958 230.002 193.861 215 191.507C188.058 187.281 166.828 168.113 139.025 166.185ZM368.683 175.79C372.304 179.648 378.621 182.065 380.033 188.014C381.732 195.157 377.001 197.712 380.908 203.731C391.748 220.422 411.001 238.585 428.937 248.265C419.37 219.807 405.36 176.523 368.683 175.79ZM358.207 178.409C341.954 186.457 342.957 190.3 341.612 212.464C346.851 207.807 352.091 203.15 357.332 198.493C361.881 195.751 371.585 196.57 374.791 192.38C375.086 190.925 375.377 189.47 375.666 188.014C372.868 183.706 372.062 181.379 366.932 179.283C364.029 178.99 361.121 178.699 358.207 178.409ZM235.081 180.155C228.298 183.863 213.761 185.744 205.391 184.521V186.268C219.712 188.836 240.583 186.904 253.419 181.028L235.081 180.155ZM319.783 182.775C312.168 185.514 304.447 183.574 299.699 188.888V189.76H307.558C311.323 188.766 321.595 186.043 319.781 182.775H319.783ZM131.165 184.523C110.18 213.084 114.823 242.276 99.7293 274.462L61.3073 314.628H64.8C77.0632 310.195 83.4699 301.217 94.4897 295.418V299.784C90.9112 309.844 83.5601 320.245 84.0115 330.349C84.8843 330.932 85.7574 331.514 86.6308 332.096H87.5042C91.9432 318.704 104.389 311.078 109.335 298.915C113.407 288.894 104.851 276.157 109.335 264.86C116.606 246.538 131.178 234.122 139.024 217.708C144.245 206.776 138.331 188.876 131.165 184.523ZM270.008 185.396L268.261 186.269C269.134 188.015 270.007 189.762 270.88 191.509H282.231L270.008 185.396ZM121.56 187.143C103.393 203.455 100.969 219.007 95.3631 249.139C93.9075 257.579 92.4521 266.019 90.997 274.462C80.556 292.365 55.0635 293.217 49.9556 318.121H50.8334C60.2502 312.899 64.5938 304.447 71.7908 297.167L93.6207 280.576C105.802 267.871 104.492 238.192 109.339 218.58C113.411 208.1 117.484 197.621 121.56 187.141V187.143ZM139.897 188.889C168.778 240.028 186.1 263.674 245.557 227.31C252.379 223.137 273.045 219.229 276.993 212.465C273.525 205.278 268.792 198.771 263.021 193.255C238.034 195.604 204.439 228.71 173.081 217.705C165.263 214.959 151.7 195.543 139.897 188.888V188.889ZM270.008 194.128C272.917 199.366 275.828 204.606 278.739 209.845H280.486C281.359 205.772 282.232 201.697 283.105 197.621L280.486 196.748L270.008 194.128ZM366.931 199.367C360.242 204.024 353.549 208.681 346.851 213.338C336.934 226.02 332.24 245.303 314.542 250.012C305.907 252.31 294.673 250.358 286.598 249.139L201.023 252.632L202.769 253.505C216.962 268.594 242.194 283.528 266.514 287.56C279.589 289.724 288.956 283.246 297.951 280.574C327.557 271.781 360.242 277.787 380.032 290.179C375.743 279.646 365.675 280.615 364.315 265.73C371.584 258.347 376.385 214.839 372.174 199.367H366.931ZM376.541 204.607C374.756 223.558 374.036 235.017 385.275 244.774C393.957 243.75 403.245 242.676 411.468 244.774C417.083 257.234 421.641 266.848 425.444 281.447C427.186 282.32 428.936 283.194 430.678 284.067C439.031 282.219 443.762 278.201 454.255 277.082L452.513 275.335C443.432 256.607 415.861 246.086 400.117 233.422C392.258 223.817 384.399 214.211 376.541 204.605V204.607ZM337.245 215.084C329.64 227.192 317.598 241.585 299.697 243.026C287.826 237.544 289.31 225.49 280.486 217.704C261.069 223.419 231.49 233.333 221.107 248.269C259.48 238.755 310.515 260.43 330.26 230.8C332.976 226.724 338.069 219.823 337.245 215.084ZM95.3631 222.07C88.667 242.441 81.9724 262.815 75.2792 283.192L81.3913 277.953C86.4307 266.804 102.09 239.865 95.3631 222.07ZM424.569 224.689C426.657 245.742 457.174 279.96 474.339 285.812V284.94C463.274 259.053 445.702 240.312 424.569 224.689ZM376.541 244.777C375.665 245.941 374.793 247.105 373.924 248.27C374.21 249.143 374.504 250.016 374.79 250.889C377.416 249.433 380.035 247.978 382.649 246.523L380.908 245.65L376.541 244.777ZM393.134 245.65C380.396 251.66 375.137 255.628 367.807 266.604V267.473H374.79C381.67 252.614 392.796 255.109 407.976 248.263L393.134 245.65ZM403.609 251.762C387.848 258.011 386.444 258.971 377.416 270.972C378.577 271.846 379.747 272.719 380.908 273.592C382.649 272.136 384.397 270.681 386.15 269.226C389.884 260.092 398.549 256.058 411.468 256.129C411.179 254.673 410.888 253.218 410.593 251.762H403.609ZM402.734 259.621C396.192 263.69 390.239 266.184 387.016 273.592C386.574 286.914 396.322 268.241 398.367 266.606C403.609 264.86 408.848 263.114 414.085 261.367L402.734 259.621ZM407.101 265.734C401.192 270.52 396.184 274.608 394.875 284.07C398.367 286.98 401.862 289.891 405.359 292.802L402.734 282.325C405.359 279.415 407.979 276.505 410.593 273.594H411.468C410.983 282.879 411.832 287.289 416.71 291.058V289.311C420.089 282.526 418.617 269.669 413.218 266.608L407.101 265.734ZM366.931 270.099C368.682 272.719 370.429 275.338 372.174 277.958V274.465C371.298 273.01 370.432 271.555 369.557 270.099H366.931ZM222.853 272.719C228.162 286.844 234.345 313.39 247.304 319.871C253.085 322.762 266.414 322.358 273.5 320.744C296.069 315.604 376.324 319.909 386.15 305.9C386.436 305.027 386.73 304.154 387.016 303.28C370.432 283.703 340.895 274.44 305.81 283.197C294.285 286.074 280.379 293.208 263.895 290.182C247.925 287.247 235.739 279.007 222.853 272.713V272.719ZM374.79 275.339L377.416 282.324C379.157 283.197 380.908 284.07 382.649 284.944C381.575 279.633 379.27 277.193 374.79 275.334V275.339ZM383.524 280.577C386.463 285.425 390.697 289.356 395.75 291.929H396.625C395.239 285.198 390.491 281.668 383.524 280.572V280.577ZM407.101 296.295H400.117C395.248 294.281 386.314 288.971 383.524 291.056C393.134 308.597 473.057 338.716 501.408 331.223C501.703 329.767 501.994 328.312 502.283 326.857C491.738 313.667 480.465 298.576 452.513 303.28C441.717 305.099 431.033 307.994 420.202 305.9C413.582 300.188 412.387 288.477 407.101 281.446V296.295ZM445.52 282.324C437.921 287.921 430.756 289.684 422.819 284.07C421.268 288.634 417.906 294.217 420.202 299.787C421.415 301.466 420.289 300.307 421.944 301.534C428.356 304.738 437.462 300.975 444.654 299.787C460.97 297.094 477.979 301.474 488.316 305.9V303.28C479.798 291.743 465.735 282.106 445.52 282.319V282.324ZM477.831 284.944C483.593 297.06 496.46 303.836 501.408 317.252H502.283V312.885C497.734 301.737 487.232 291.354 477.831 284.939V284.944ZM391.383 304.154C372.962 328.903 334.38 314.874 298.824 320.744C285.346 322.969 274.032 332.254 256.909 328.603C246.879 326.465 241.859 319.847 235.074 314.632C236.239 327.437 237.403 340.244 238.567 353.052C269.123 402.805 392.341 346.654 395.745 307.647L394.003 305.027L391.383 304.154ZM67.4203 317.247C56.8918 323.8 47.6898 332.372 46.4629 347.812C53.0966 344.877 70.7995 322.386 67.4203 317.247ZM52.575 319.866C40.6757 327.893 38.474 338.151 35.1112 354.794L41.2233 349.558C43.7283 343.533 56.0322 324.405 52.575 319.866ZM392.258 388.848C392.839 367.02 393.422 345.191 394.009 323.359L391.383 324.232C362.85 361.317 260.875 416.134 232.459 339.081C230.13 350.432 227.801 361.783 225.473 373.135C242.811 370.081 249.267 384.762 259.525 391.472C277.186 403.021 299.114 411.3 323.271 415.921C359.913 422.92 362.027 390.55 392.258 388.848ZM39.4765 326.852L32.491 341.696L34.2378 340.823C35.898 336.293 40.6844 331.141 39.4765 326.852ZM229.841 377.497C217.146 388.32 207.086 412.454 203.645 431.634C211.27 425.171 215.108 417.392 228.095 415.917C256.091 412.738 315.175 448.134 341.613 422.903C291.071 417.431 263.677 404.298 235.954 377.497H229.841ZM387.019 393.214C381.205 396.416 375.385 399.618 369.559 402.819C354.015 414.137 343.77 432.27 321.53 436.874C299.051 441.527 281.339 430.95 263.024 429.015C268.34 436.207 276.151 439.094 283.981 443.86C319.675 465.582 338.694 462.288 374.793 443.86C382.409 439.972 399.245 436.75 401.87 428.141C398.664 416.501 395.461 404.858 392.261 393.214H387.019ZM222.853 419.41C206.824 437.187 229.476 472.561 241.191 480.534C248.531 485.529 256.447 485.791 267.387 487.518C273.057 488.414 284.947 489.868 288.345 487.518C270.985 456.802 270.571 419.174 222.853 419.41ZM214.121 425.522C194.5 450.071 216.416 492.58 233.332 510.222C227.899 492.955 219.666 477.244 214.994 456.957C212.802 447.439 216.251 432.676 214.121 425.522ZM403.609 438.62C383.628 449.559 360.797 461.202 335.499 465.689C335.788 466.271 336.079 466.853 336.372 467.436C351.742 471.655 389.191 496.274 404.484 489.265C408.479 477.62 412.776 449.226 403.609 438.62ZM279.613 453.462C284.017 480.088 300.037 497.667 318.908 510.219C312.652 484.758 298.529 466.305 279.613 453.462ZM290.092 453.462C324.435 495.082 358.782 536.704 393.134 578.328C405.082 587.277 423.07 591.559 441.162 594.046C440.036 586.719 439.62 578.34 436.795 573.092C416.84 566.071 400.005 547.66 386.15 533.798C363.37 511.024 319.607 466.104 290.092 453.462ZM220.234 459.574C228.537 498.265 251.74 520.318 264.771 553.002L265.644 551.255C288.808 521.551 244.583 493.155 233.334 478.782L220.234 459.574ZM311.922 463.073C334.912 481.117 357.907 499.163 380.908 517.211C398.861 531.68 412.101 559.258 436.795 566.109V565.236C426.883 540.286 419.414 505.437 413.218 478.791C412.924 479.372 412.629 479.955 412.343 480.537C409.181 486.183 408.773 491.62 402.734 494.508C386.635 498.878 334.72 468.072 311.922 463.073ZM254.289 493.638C289.366 544.325 263.618 549.068 254.289 601.914C248.992 631.923 271.484 652.001 277.867 673.516C282.805 690.171 274.325 709.766 277.867 725.907C280.119 736.175 293.603 746.465 300.568 752.976C310.174 752.996 312.357 749.532 317.159 745.117C316.421 732.594 308.235 728.181 305.809 718.049V697.96C301.442 690.393 297.076 682.826 292.71 675.257C284.765 656.063 284.176 630.712 280.485 608.022C272.86 561.144 316.167 548.073 297.95 507.605C290.385 490.797 272.918 497.913 254.289 493.632V493.638ZM319.781 496.258C325.59 523.687 349.401 572.812 366.931 586.197C375.302 592.581 387.042 593.931 398.367 597.548C372.174 563.783 345.978 530.017 319.781 496.251V496.258ZM302.317 501.497C303.719 513.782 311.232 525.16 308.429 539.917C305.8 553.758 297.242 560.409 292.711 571.349C285.538 588.673 289.238 614.349 291.838 633.345C299.896 627.427 311.535 616.893 315.414 607.149C319.884 595.925 313.584 582.346 316.288 568.728C322.018 539.876 325.101 518.483 302.317 501.49V501.497ZM395.75 583.582C403.904 601.186 421.025 612.904 425.444 635.101C428.98 652.875 416.251 666.309 414.085 681.381C416.996 695.639 419.908 709.901 422.819 724.167C429.127 764.092 394.832 787.116 449.887 799.261C444.94 785 439.992 770.738 435.045 756.475C428.91 732.254 431.752 696.775 435.92 670.029C438.823 651.38 455.043 623.523 446.396 607.159C439.611 594.291 408.912 589.923 395.75 583.57V583.582ZM361.698 587.074C371.506 608.825 395.707 622.154 402.734 645.578C408.028 663.22 393.662 678.2 397.501 699.716C400.992 709.32 404.484 718.925 407.976 728.531C409.726 738.717 411.474 748.905 413.218 759.096C415.532 746.828 420.817 733.565 417.585 717.183C414.674 705.542 411.763 693.899 408.851 682.255C411.936 653.844 430.444 637.712 408.851 609.782C400.117 598.467 373.482 595.09 361.698 587.066V587.074ZM249.05 605.4C240.291 632.012 261.552 658.177 265.642 682.241C268.802 700.843 259.663 716.087 273.5 724.154H274.373C275.862 676.988 265.668 662.244 254.289 629.849C252.543 621.7 250.797 613.55 249.05 605.4ZM309.302 621.991C299.612 634.218 293.541 638.027 296.204 659.537L297.077 657.791C301.151 645.859 305.226 633.925 309.302 621.991ZM441.162 673.51C440.573 693.344 430.565 737.475 438.537 754.716C440.287 732.551 452.478 695.7 441.162 673.51ZM205.389 738.998C295.439 736.827 299.869 845.553 230.713 861.244C181.792 872.344 140.126 829.483 156.489 781.784C165.346 755.968 181.25 749.996 205.389 738.998ZM208.012 742.49L187.054 750.348C187.636 753.258 188.218 756.169 188.8 759.08C185.746 771.02 161.809 804.467 180.068 820.203C195.197 807.807 185.112 767.221 201.903 757.333C223.834 736.934 254.299 789.624 266.521 792.261V788.77C262.614 779.514 257.423 769.106 249.93 763.448C240.776 756.534 221.967 754.815 218.494 742.494H208.012V742.49ZM224.603 743.362L223.729 745.109C237.58 758.32 276.484 765.77 269.137 795.754H263.899C254.021 789.519 223.569 746.462 204.52 759.953C192.936 768.156 199.036 793.712 194.041 808.852C191.465 816.658 185.81 821.708 180.943 827.189H177.45L173.957 824.569C163.616 790.187 182.166 779.024 185.308 754.714H184.435C178.258 757.179 174.073 760.245 170.464 765.191C173.256 763.451 173.44 762.915 178.323 762.572C174.713 781.591 154.928 822.064 180.069 835.045C198.819 827.339 216.492 808.946 239.448 824.568L238.575 829.807C233.65 839.14 219.051 845.964 207.139 848.145L183.561 849.018H185.308C207.745 866.941 240.386 842.004 250.8 829.807C249.865 802.209 199.617 796.321 211.505 769.557C239.825 769.795 249.424 794.331 265.645 807.104L270.884 804.485C280.449 773.521 253.371 744.347 224.6 743.364L224.603 743.362ZM324.149 743.362C319.51 777.792 291.409 750.432 281.362 745.109C288.503 761.639 319.243 801.853 345.98 791.388L350.346 788.769C356.343 769.205 342.075 746.27 324.147 743.364L324.149 743.362ZM172.206 768.686C159.941 786.688 149.889 824.649 173.08 840.289C190.508 852.039 224.749 840.382 232.459 829.812L230.712 825.446C204.505 819.836 175.896 859.877 164.347 821.953C158.584 803.027 168.629 783.146 172.206 770.434V768.686ZM216.743 775.672L214.997 778.292C221.613 793.333 260.96 815.2 255.165 830.684C249.575 842.518 230.031 852.888 216.743 856.88V857.754C249.383 855.477 271.64 837.674 274.376 806.235H273.503V807.981C271.756 809.727 270.01 811.473 268.264 813.22L265.644 812.347C254.801 797.121 238.669 779.354 216.74 775.672H216.743ZM409.729 778.292L405.362 790.517H407.104C412.346 791.681 417.585 792.844 422.821 794.009C436.295 802.65 438.877 833.758 465.608 815.839C465.079 810.804 464.196 810.924 462.116 807.98C440.997 799.965 423.651 793.105 409.727 778.292H409.729ZM406.229 795.755C405.067 796.629 403.903 797.503 402.737 798.375C401.87 801.577 400.998 804.779 400.12 807.98L421.08 809.727C443.626 819.525 457.619 873.937 501.411 848.147V842.908C491.177 834.609 480.384 827.023 469.108 820.205C455.806 841.699 423.217 798.009 406.226 795.755H406.229ZM400.12 812.346C399.245 813.219 398.372 814.092 397.503 814.965L399.245 818.458C412.043 820.222 422.718 824.625 433.306 828.063C426.848 816.226 419.466 811.742 400.117 812.346H400.12Z" fill="#464646"/>
</svg>
