<svg width="429" height="63" viewBox="0 0 429 63" fill="none" xmlns="http://www.w3.org/2000/svg">
<circle cx="264" cy="30" r="27.5" stroke="white" stroke-width="5"/>
<path d="M269.205 10.4929C265.7 9.56406 261.683 10.2626 258.885 12.2697H257.789C256.286 12.2697 255.064 11.0466 255.064 9.54307V6.92617C255.064 5.86406 254.2 5 253.138 5H251.64C250.578 5 249.714 5.86406 249.714 6.92617V10.3186C249.714 13.7615 252.104 16.6804 255.365 17.434C255.299 17.701 255.245 17.9724 255.203 18.2463C254.561 22.3965 256.786 25.1039 258.573 27.2795C261.082 30.3332 262.445 32.1489 257.642 36.2673C256.424 37.3115 255.651 38.7604 255.457 40.3272H253.594C250.51 40.3272 248 42.838 248 45.9242V53.0738C248 54.1358 248.864 55 249.926 55H251.18C252.242 55 253.106 54.1359 253.106 53.0738V47.0168C253.106 46.6129 253.435 46.2843 253.839 46.2843H258.092C259.283 47.1103 261.326 47.7851 263.137 47.785C265.815 47.7849 268.726 46.5572 271.499 44.2275C274.803 41.4517 277.473 37.4683 279.017 33.011C282.507 22.9313 276.489 12.4226 269.205 10.4929ZM273.768 33.4172C272.316 37.5597 266.151 44.4938 261.974 43.292C260 42.7238 259.458 40.308 261.533 38.4347C263.824 36.3661 265.161 34.1409 265.3 32.1689C265.319 31.9021 265.661 31.9193 265.927 31.9193C266.606 31.9193 267.6 32.1007 268.918 32.7948C270.267 33.5056 271.83 33.6062 273.441 33.0854C273.643 33.0198 273.838 33.2179 273.768 33.4172ZM265.021 14.7598C264.52 14.6519 264.269 14.1421 264.452 13.6943C264.78 12.9073 265.954 13.1437 265.954 13.9932C265.954 14.4818 265.509 14.8539 265.021 14.7598ZM274.909 23.9494C273.879 19.7621 271.933 16.1303 267.717 15.1598C267.297 15.063 267.034 14.6437 267.131 14.2231C267.228 13.8027 267.647 13.5404 268.068 13.6371C272.286 14.6081 275.02 17.8592 276.427 23.5761C276.548 24.0685 276.174 24.5442 275.667 24.5442C275.316 24.5441 274.997 24.3057 274.909 23.9494Z" fill="white"/>
<path d="M4.46389 49.1216H11.1597V18.0301H25.6414V12.2685H4.46389V49.1216ZM22.4914 49.1216H29.3429L32.4573 39.6747H45.3818L48.5481 49.1216H55.3996L42.4751 12.2685H35.4159L22.4914 49.1216ZM34.1183 34.2246L37.4402 24.3626C38.0631 22.2863 38.8936 18.6529 38.8936 18.6529H38.9974C38.9974 18.6529 39.8279 22.2863 40.4508 24.3626L43.7208 34.2246H34.1183ZM56.2711 30.5393C56.2711 41.3876 63.7455 49.7445 75.3205 49.7445C81.9125 49.7445 86.6359 46.9934 89.8021 43.7753L86.2726 38.9481C83.4696 41.6991 79.5248 43.6196 75.58 43.6196C67.5865 43.6196 63.1745 37.339 63.1745 30.4355C63.1745 23.6359 67.4308 17.7705 75.5281 17.7705C79.1096 17.7705 83.0025 19.4315 85.5978 21.6635L88.8159 16.6805C85.2344 13.2028 80.0439 11.6457 75.2166 11.6457C64.1088 11.6457 56.2711 19.8468 56.2711 30.5393ZM102.873 49.1216H109.517V18.0301H121.611V12.2685H90.779V18.0301H102.873V49.1216ZM125.818 49.1216H132.514V36.4047H140.04C146.943 36.4047 151.771 31.4217 151.771 24.2587C151.771 17.0958 146.943 12.2685 140.04 12.2685H125.818V49.1216ZM132.514 30.5912V18.0301H138.898C142.687 18.0301 144.971 20.4696 144.971 24.2587C144.971 28.0998 142.687 30.5912 138.794 30.5912H132.514ZM154.382 30.4355C154.382 41.2838 162.583 49.7445 173.431 49.7445C184.279 49.7445 192.481 41.2838 192.481 30.4355C192.481 19.8987 184.279 11.6457 173.431 11.6457C162.583 11.6457 154.382 19.8987 154.382 30.4355ZM161.285 30.4355C161.285 23.2725 166.683 17.7705 173.431 17.7705C180.179 17.7705 185.577 23.2725 185.577 30.4355C185.577 37.9099 180.179 43.6196 173.431 43.6196C166.683 43.6196 161.285 37.9099 161.285 30.4355ZM193.453 43.412V49.5368C203.678 49.1735 207.779 40.2976 207.779 22.442V18.0301H217.485V49.1216H224.181V12.2685H201.395V22.3382C201.395 36.6123 198.903 42.6853 193.453 43.412Z" fill="white"/>
<path d="M303.464 49H310.16V17.9085H324.641V12.1469H303.464V49ZM328.683 49H335.327L349.341 27.7706C350.691 25.5905 352.404 22.0609 352.404 22.0609H352.507C352.507 22.0609 352.144 25.5905 352.144 27.7706V49H358.788V12.1469H352.144L338.233 33.3764C336.884 35.5564 335.119 39.1379 335.119 39.1379H335.015C335.015 39.1379 335.379 35.6083 335.379 33.4283V12.1469H328.683V49ZM366.726 49H373.422V32.9092H378.197L387.177 49H394.755L383.699 29.7949V29.6911L394.132 12.1469H386.865L378.197 27.1477H373.422V12.1469H366.726V49ZM394.739 49H401.591L404.705 39.5532H417.63L420.796 49H427.647L414.723 12.1469H407.664L394.739 49ZM406.366 34.1031L409.688 24.241C410.311 22.1647 411.141 18.5314 411.141 18.5314H411.245C411.245 18.5314 412.076 22.1647 412.699 24.241L415.969 34.1031H406.366Z" fill="white"/>
</svg>
