<svg width="20" height="20" viewBox="0 0 20 20" fill="none" xmlns="http://www.w3.org/2000/svg">
<g clip-path="url(#clip0)">
<path d="M5.96541 6.42859L14.0346 6.42859L10 9.88684L5.96541 6.42859Z" fill="#789122"/>
<path d="M9.99999 10.7143C10.0853 10.7143 10.1677 10.6837 10.2324 10.6281L14.6428 6.84778L14.6428 13.5714L5.35713 13.5714L5.35713 6.84778L9.76753 10.6281C9.83223 10.6837 9.91471 10.7143 9.99999 10.7143Z" fill="#789122"/>
<path d="M10 -8.74228e-07C15.5228 -3.91408e-07 20 4.47719 20 10C20 15.5228 15.5228 20 10 20C4.47719 20 -1.35705e-06 15.5228 -8.74228e-07 10C0.00627669 4.4798 4.47981 0.00627655 10 -8.74228e-07ZM4.64286 13.9286C4.64286 14.1258 4.80277 14.2857 5 14.2857L15 14.2857C15.1972 14.2857 15.3571 14.1258 15.3571 13.9286L15.3571 6.07143C15.3571 5.8742 15.1972 5.71429 15 5.71429L5 5.71428C4.80277 5.71428 4.64286 5.8742 4.64286 6.07143L4.64286 13.9286Z" fill="#789122"/>
</g>
<defs>
<clipPath id="clip0">
<rect width="20" height="20" fill="white" transform="matrix(-1 -8.74228e-08 -8.74228e-08 1 20 0)"/>
</clipPath>
</defs>
</svg>
