<svg width="18" height="18" viewBox="0 0 18 18" fill="none" xmlns="http://www.w3.org/2000/svg">
<path d="M9 18C13.9706 18 18 13.9706 18 9C18 4.02944 13.9706 0 9 0C4.02944 0 0 4.02944 0 9C0 13.9706 4.02944 18 9 18Z" fill="#789122"/>
<path d="M13.5 10.8608C12.5291 10.8608 11.6033 10.6493 10.7494 10.2319C10.6155 10.1678 10.4602 10.1576 10.3185 10.206C10.1767 10.2555 10.0609 10.359 9.99563 10.4929L9.59062 11.331C8.37562 10.6335 7.36762 9.62437 6.669 8.40937L7.50825 8.00437C7.64325 7.93912 7.74562 7.82325 7.79513 7.6815C7.8435 7.53975 7.8345 7.3845 7.76925 7.25063C7.35075 6.39788 7.13925 5.472 7.13925 4.5C7.13925 4.1895 6.88725 3.9375 6.57675 3.9375H4.5C4.1895 3.9375 3.9375 4.1895 3.9375 4.5C3.9375 9.77287 8.22713 14.0625 13.5 14.0625C13.8105 14.0625 14.0625 13.8105 14.0625 13.5V11.4233C14.0625 11.1128 13.8105 10.8608 13.5 10.8608Z" fill="#FAFAFA"/>
</svg>
