<svg xmlns="http://www.w3.org/2000/svg" width="199" height="52" viewBox="0 0 199 52">
  <metadata><?xpacket begin="﻿" id="W5M0MpCehiHzreSzNTczkc9d"?>
<x:xmpmeta xmlns:x="adobe:ns:meta/" x:xmptk="Adobe XMP Core 5.6-c138 79.159824, 2016/09/14-01:09:01        ">
   <rdf:RDF xmlns:rdf="http://www.w3.org/1999/02/22-rdf-syntax-ns#">
      <rdf:Description rdf:about=""/>
   </rdf:RDF>
</x:xmpmeta>
                                                                                                    
                                                                                                    
                                                                                                    
                                                                                                    
                                                                                                    
                                                                                                    
                                                                                                    
                                                                                                    
                                                                                                    
                                                                                                    
                                                                                                    
                                                                                                    
                                                                                                    
                                                                                                    
                                                                                                    
                                                                                                    
                                                                                                    
                                                                                                    
                                                                                                    
                                                                                                    
                           
<?xpacket end="w"?></metadata>
<defs>
    <style>
      .cls-1 {
        fill: #68b0c9;
        fill-rule: evenodd;
      }
    </style>
  </defs>
  <path id="стрелка" class="cls-1" d="M1004.64,1326.88l-4.866-5-1.442,1.38,4.868,5Zm-7.992-7.98-4.923-4.94-1.426,1.39,4.924,4.95Zm-8.876-8.2-5.317-4.53-1.305,1.5,5.317,4.53Zm-10.819-7.48-5.962-3.66-1.053,1.69,5.962,3.66Zm-11.915-7.43-6.407-2.82-0.812,1.81,6.407,2.82Zm-12.986-5.62-6.815-1.63-0.469,1.93,6.815,1.63ZM938,1285.86l-6.937-.99-0.287,1.97,6.938,0.99Zm-16.044-2.12-6.972-.73-0.209,1.98,6.972,0.73Zm-13.171-.58-7,.42,0.121,1.99,7-.42Zm-15.221,1.53-6.872,1.37,0.4,1.95,6.872-1.37Zm-13.024,2.97-6.867,1.4,0.4,1.94,6.866-1.4Zm-12.189,2.68-6.7,2.03,0.584,1.9,6.705-2.03Zm-13.171,5.74-6.538,2.51,0.722,1.85,6.538-2.5Zm-12.41,6.52-6.044,3.52,1.014,1.71,6.045-3.52Zm-10.482,6.57-5.378,4.46,1.284,1.52,5.379-4.45Zm-9.307,7.77-9.936,11.89,1.424,1.4,9.936-11.9Zm2.547,9.32-10.9,1.61,0.294,1.96,10.9-1.6Zm-10.05-6.73-2.468,10.64,1.952,0.45,2.468-10.65Zm191.52,5.53a4.97,4.97,0,1,1-5,4.97A4.989,4.989,0,0,1,1007,1325.06Zm0,2a2.97,2.97,0,1,1-3,2.97A2.983,2.983,0,0,1,1007,1327.06Z" transform="translate(-813 -1283)"/>
</svg>
