<svg width="24" height="24" viewBox="0 0 24 24" fill="none" xmlns="http://www.w3.org/2000/svg">
<circle cx="12" cy="12" r="11.5" stroke="#1D4F6E"/>
<path d="M6.40632 9.278H7.97432V11H8.54832V9.278H10.1093V8.732H8.54832V7.01H7.97432V8.732H6.40632V9.278ZM10.5374 11H13.3864V10.398H12.3014V6.058H11.6854L10.5024 7.206L10.9224 7.64L11.3844 7.192C11.5664 7.01 11.6224 6.905 11.6224 6.905H11.6364C11.6364 6.905 11.6294 7.052 11.6294 7.206V10.398H10.5374V11ZM13.8003 10.398C14.1713 10.846 14.7383 11.084 15.3193 11.084C16.3133 11.084 17.0693 10.37 17.0693 9.425C17.0693 8.529 16.3903 7.808 15.3473 7.808C15.1093 7.808 14.8223 7.892 14.7033 7.955H14.6893C14.6893 7.955 14.7173 7.857 14.7313 7.703L14.8433 6.66H16.7403V6.058H14.2413L13.9963 8.508L14.4023 8.655C14.6333 8.501 14.9483 8.41 15.2353 8.41C15.8723 8.41 16.3553 8.83 16.3553 9.425C16.3553 10.027 15.8583 10.426 15.2773 10.426C14.7663 10.426 14.4023 10.153 14.1923 9.894L13.8003 10.398ZM7.23348 15.858C7.23348 17.1 8.09148 18.072 9.40548 18.072C10.1555 18.072 10.6835 17.76 11.0435 17.4L10.7255 16.974C10.3835 17.316 9.89748 17.526 9.42348 17.526C8.43948 17.526 7.84548 16.752 7.84548 15.852C7.84548 14.958 8.42748 14.232 9.41148 14.232C9.84948 14.232 10.3235 14.418 10.6355 14.694L10.9355 14.25C10.5275 13.86 9.93348 13.692 9.38748 13.692C8.12748 13.692 7.23348 14.628 7.23348 15.858ZM11.6723 18H14.2403V17.484H12.2663V16.122H13.7843V15.606H12.2663V14.28H14.1383V13.764H11.6723V18ZM14.939 18H15.533V16.062H16.163L17.291 18H17.969L16.655 15.786V15.774L17.891 13.764H17.237L16.163 15.546H15.533V13.764H14.939V18Z" fill="#1D4F6E"/>
</svg>
